<?xml version="1.0" standalone="no"?>
<!DOCTYPE svg PUBLIC "-//W3C//DTD SVG 20010904//EN"
 "http://www.w3.org/TR/2001/REC-SVG-20010904/DTD/svg10.dtd">
<svg version="1.0" xmlns="http://www.w3.org/2000/svg"
 width="700.000000pt" height="700.000000pt" viewBox="0 0 700.000000 700.000000"
 preserveAspectRatio="xMidYMid meet">
<metadata>
Created by potrace 1.11, written by Peter Selinger 2001-2013
</metadata>
<g transform="translate(0.000000,700.000000) scale(0.100000,-0.100000)"
fill="#000000" stroke="none">
<path d="M3240 6974 c-110 -10 -310 -37 -402 -55 -1385 -268 -2473 -1348
-2752 -2732 -50 -250 -61 -371 -61 -687 0 -323 11 -442 66 -705 312 -1509
1579 -2634 3114 -2765 154 -13 436 -13 590 0 1434 123 2648 1118 3050 2500 42
144 87 364 110 530 22 163 30 532 16 715 -81 1006 -587 1919 -1396 2521 -483
358 -1017 574 -1635 659 -110 16 -592 28 -700 19z m535 -354 c736 -69 1389
-370 1913 -884 513 -502 817 -1113 919 -1846 24 -175 24 -605 0 -780 -88 -631
-326 -1168 -728 -1641 -509 -601 -1227 -982 -2034 -1080 -141 -17 -547 -18
-685 -1 -720 88 -1335 378 -1839 867 -732 710 -1067 1709 -915 2725 79 532
313 1059 661 1490 112 138 342 369 473 474 108 86 337 239 460 306 351 194
795 329 1206 369 129 12 441 13 569 1z"/>
<path d="M2290 4673 c-19 -2 -83 -12 -141 -23 -423 -79 -647 -289 -679 -637
-14 -162 13 -303 80 -403 87 -132 210 -216 470 -325 148 -62 253 -115 288
-148 12 -11 27 -38 33 -60 14 -53 -12 -103 -72 -135 -39 -21 -54 -23 -124 -19
-88 5 -165 31 -262 88 -68 41 -193 156 -236 218 -21 31 -32 40 -37 30 -4 -8
-58 -171 -120 -364 -62 -192 -115 -355 -117 -362 -6 -16 217 -87 373 -118 209
-43 370 -58 624 -58 257 -1 402 15 560 60 291 83 478 256 535 494 24 102 20
279 -8 377 -67 229 -195 327 -685 523 -288 115 -348 170 -297 269 25 49 68 65
170 65 108 -1 200 -26 293 -82 63 -37 175 -138 228 -205 l29 -37 119 342 c66
188 121 347 123 354 11 29 -346 119 -587 148 -113 14 -460 19 -560 8z"/>
<path d="M4442 4665 c-351 -53 -584 -189 -687 -398 -47 -98 -65 -172 -72 -298
-11 -198 37 -328 166 -458 85 -85 171 -135 411 -236 167 -71 230 -106 269
-151 58 -65 34 -145 -53 -185 -158 -72 -454 70 -626 300 l-25 33 -119 -363
c-65 -199 -120 -368 -123 -375 -6 -16 204 -84 365 -118 345 -73 801 -83 1085
-25 358 73 572 245 644 519 23 89 22 273 -1 360 -63 234 -194 340 -641 520
-345 138 -398 182 -349 285 43 92 244 97 419 11 84 -42 186 -124 253 -205 l50
-59 122 350 c98 282 120 352 109 359 -42 27 -309 95 -494 125 -140 22 -576 28
-703 9z"/>
</g>
</svg>
