<?xml version="1.0" encoding="utf-8"?>
<!-- Generator: Adobe Illustrator 23.0.2, SVG Export Plug-In . SVG Version: 6.00 Build 0)  -->
<svg version="1.1" xmlns="http://www.w3.org/2000/svg" xmlns:xlink="http://www.w3.org/1999/xlink" x="0px" y="0px"
	 viewBox="0 0 200 200" style="enable-background:new 0 0 200 200;" xml:space="preserve">
<style type="text/css">
	.st0{fill:url(#SVGID_1_);stroke:#000000;stroke-width:10;stroke-miterlimit:10;}
	.st1{fill:#005EFF;}
</style>
<g id="Layer_2">
	<linearGradient id="SVGID_1_" gradientUnits="userSpaceOnUse" x1="60.7634" y1="18.0263" x2="140.8253" y2="185.2926">
		<stop  offset="0" style="stop-color:#FCEE21"/>
		<stop  offset="0.5627" style="stop-color:#F9BC1F"/>
		<stop  offset="1" style="stop-color:#F7931E"/>
	</linearGradient>
	<circle class="st0" cx="100" cy="100" r="94.5"/>
</g>
<g id="Layer_1">
	<g>
		<path class="st1" d="M98.4,70.6l-7.1,20.3c-4.7-6.3-10-9.4-16-9.4c-3.4,0-5,1.3-5,3.8c0,0.8,0.5,1.6,1.6,2.4
			c1.1,0.8,3.8,2.1,8.3,3.8c4.9,1.9,8.7,3.7,11.4,5.3c2.7,1.6,4.7,3.6,6,6.1c1.3,2.5,2,5.4,2,8.7c0,6.9-2.6,12.2-7.9,15.8
			c-5.2,3.6-13,5.4-23.1,5.4c-11.4,0-21.3-1.6-29.5-4.9l7-21.6c2,3.2,4.5,5.7,7.5,7.5c3,1.9,5.9,2.8,8.6,2.8c1.4,0,2.5-0.4,3.4-1.1
			c0.9-0.7,1.4-1.6,1.4-2.6c0-1-0.4-1.9-1.3-2.7s-3.2-2.1-7-3.6c-3.4-1.4-6.3-2.7-8.5-4c-2.3-1.3-4.2-3.2-5.9-5.6
			c-1.7-2.4-2.5-5.5-2.5-9.2c0-7.2,2.6-12.6,7.8-16.2c5.2-3.6,12.9-5.5,23.1-5.5C81.9,66.2,90.5,67.7,98.4,70.6z"/>
		<path class="st1" d="M161.6,70.6l-7.1,20.3c-4.7-6.3-10-9.4-16-9.4c-3.4,0-5,1.3-5,3.8c0,0.8,0.5,1.6,1.6,2.4
			c1.1,0.8,3.8,2.1,8.3,3.8c4.9,1.9,8.7,3.7,11.4,5.3c2.7,1.6,4.7,3.6,6,6.1c1.3,2.5,2,5.4,2,8.7c0,6.9-2.6,12.2-7.9,15.8
			c-5.2,3.6-13,5.4-23.1,5.4c-11.4,0-21.3-1.6-29.5-4.9l7-21.6c2,3.2,4.5,5.7,7.6,7.5c3,1.9,5.9,2.8,8.6,2.8c1.4,0,2.5-0.4,3.4-1.1
			c0.9-0.7,1.4-1.6,1.4-2.6c0-1-0.4-1.9-1.3-2.7s-3.2-2.1-7-3.6c-3.4-1.4-6.3-2.7-8.5-4c-2.3-1.3-4.2-3.2-5.9-5.6
			c-1.7-2.4-2.5-5.5-2.5-9.2c0-7.2,2.6-12.6,7.8-16.2s12.9-5.5,23.1-5.5C145,66.2,153.6,67.7,161.6,70.6z"/>
	</g>
</g>
</svg>
